<?xml version="1.0" encoding="UTF-8"?>
<svg width="512" height="512" viewBox="0 0 512 512" xmlns="http://www.w3.org/2000/svg">
  <path d="M371.5 177.5c-33.5 30.9-82.2 72.5-161.2 72.5-76.5 0-163.2-33.9-163.2-111.4 0-32.8 18.3-64.8 44.4-86.4C168.7 5.8 261.2 0 305.6 0c44.4 0 136.9 5.8 214.1 52.2 26.1 21.6 44.4 53.6 44.4 86.4 0 77.5-86.7 111.4-163.2 111.4-79 0-127.7-41.6-161.2-72.5-33.5-30.9-82.2-72.5-161.2-72.5-76.5 0-163.2 33.9-163.2 111.4 0 32.8 18.3 64.8 44.4 86.4C36.9 350.2 129.4 356 173.8 356s136.9-5.8 214.1-52.2c26.1-21.6 44.4-53.6 44.4-86.4 0-77.5-86.7-111.4-163.2-111.4-79 0-127.7 41.6-161.2 72.5z"/>
</svg>