<?xml version="1.0" encoding="UTF-8"?>
<svg width="1000" height="356.06" viewBox="0 0 1000 356.06" xmlns="http://www.w3.org/2000/svg">
  <path d="M999.72 164.79c-6.48 18.27-13.76 35.93-23.08 52.55-26.79 47.64-61.56 89.69-99.91 129-24.73 25.33-51.32 48.48-81.18 67.95-43.08 28.14-89.59 45.68-141.11 50.49-39.87 3.72-78.36-1.72-115.82-13.75-33.39-10.7-63.79-27.14-93.18-45.41-63.62-39.55-123.55-84.67-180.86-133.35C213.14 229.5,162.43,186.17,107.81,147c-40.22-28.79-82.2-54.63-128-73.27C-36.65,67.29-52.89,62.75-70,60.25V0H.2C45.76,3.67,89.88,14.51,132.71,30.94c63,24.16,118.64,61.54,172.38,101.93,51.95,39,101.93,80.47,152.74,120.86,35.22,28,71.56,54.35,112.75,73.4,25.94,12,52.62,20.7,81.92,21.67,49.89,1.65,91.36-18.39,130.79-45.93,36.08-25.19,67.16-55.64,96.09-88.56,17.56-20,33.09-41.64,45.34-65.52Z"/>
</svg>