<?xml version="1.0" encoding="UTF-8"?>
<svg width="2000" height="512" viewBox="0 0 2000 512" xmlns="http://www.w3.org/2000/svg">
  <path d="M1747.32 185.54C1726.76 109.06 1661.29 51.4 1583.33 51.4h-432.11c-11.76 0-21.31 9.55-21.31 21.31v366.59c0 11.76 9.55 21.31 21.31 21.31h432.11c77.96 0 143.43-57.66 164-134.14 2.21-8.27 3.37-16.9 3.37-25.72V211.26c0-8.82-1.16-17.45-3.38-25.72z" fill="#00AFF0"/>
  <path d="M1583.33 51.4h-432.11c-11.76 0-21.31 9.55-21.31 21.31v366.59c0 11.76 9.55 21.31 21.31 21.31h432.11c77.96 0 143.43-57.66 164-134.14H1583.33V51.4z" fill="#0CF"/>
</svg>